<?xml version="1.0" encoding="utf-8"?>
<!-- Generator: Adobe Illustrator 25.0.0, SVG Export Plug-In . SVG Version: 6.00 Build 0)  -->
<svg version="1.1" id="图层_1" xmlns="http://www.w3.org/2000/svg" xmlns:xlink="http://www.w3.org/1999/xlink" x="0px" y="0px"
	 viewBox="0 0 110.64 111.02" style="enable-background:new 0 0 110.64 111.02;" xml:space="preserve">
<style type="text/css">
	.st0{fill:#5742A0;}
	.st1{fill:#FEFEFE;}
</style>
<path class="st0" d="M80.05,110.37H30.69c-16.67,0-30.17-13.51-30.17-30.17V30.83c0-16.67,13.51-30.17,30.17-30.17h49.36
	c16.67,0,30.17,13.51,30.17,30.17v49.36C110.22,96.86,96.71,110.37,80.05,110.37z"/>
<path class="st1" d="M92.53,42.05c-0.15,0.15-0.31,0.3-0.46,0.45c-0.16,0.08-0.33,0.17-0.49,0.25c0,0,0.01-0.01,0.01-0.01
	c-0.18,0.01-0.36,0.06-0.53,0.03c-0.58-0.1-0.66,0.18-0.66,0.69c0.02,2.66,0.01,5.33,0.01,7.99c0,7.84,0,15.67-0.01,23.51
	c0,0.44,0.1,0.56,0.55,0.56c0.93-0.01,1.87-0.12,2.78,0.14c0,0-0.02-0.01-0.02-0.01c0.13,0.08,0.25,0.16,0.38,0.24
	c0.11,0.11,0.22,0.23,0.33,0.34c0.12,0.24,0.24,0.49,0.36,0.73c0,0,0.02-0.03,0.02-0.03c-0.01,0.73,0.01,1.46-0.03,2.18
	c-0.02,0.37,0.1,0.5,0.46,0.44c0.14-0.02,0.28-0.01,0.41-0.01c0.64,0,1.28,0,1.93,0c0.12,0.03,0.23,0.06,0.35,0.09
	c0.61,0.27,1.01,0.73,1.22,1.36c0,1.43,0.01,2.86,0.01,4.29c-0.16,0.7-0.58,1.2-1.24,1.48c-0.43,0.14-0.87,0.08-1.3,0.08
	c-27.43,0-54.86,0-82.29,0c-0.5,0-0.99-0.02-1.49-0.04c-0.42-0.3-0.85-0.58-1.1-1.05c-0.06-0.19-0.11-0.39-0.17-0.58
	c0-1.24,0-2.47,0-3.71c0.01-0.11,0.02-0.22,0.02-0.33c0.28-0.74,0.78-1.26,1.55-1.5c0.16-0.03,0.31-0.05,0.47-0.08
	c0.56,0,1.12,0,1.68,0c0,0,0.06,0.01,0.06,0.01s0.06-0.01,0.06-0.01c0.16,0,0.32,0,0.48,0l0.06,0.01L16,79.55
	c0.17-0.02,0.12-0.13,0.09-0.23c0-0.71,0-1.43,0.01-2.14c0.14-0.8,0.59-1.33,1.34-1.6c0.16-0.03,0.31-0.06,0.47-0.08
	c0.08,0,0.16,0,0.25,0c0.68,0,1.35-0.01,2.03-0.01c0.29-0.12,0.14-0.38,0.14-0.56c0.01-10.29,0.01-20.58,0.01-30.86
	c0-1.13,0-1.13-1.1-1.17c-0.16-0.08-0.31-0.16-0.47-0.24c0,0,0.01,0.01,0.01,0.01c-0.07-0.05-0.15-0.11-0.22-0.16
	c0,0,0.01,0.01,0.01,0.02c-0.04-0.04-0.09-0.09-0.13-0.13c0,0,0.02,0.01,0.02,0.01c-0.05-0.07-0.11-0.15-0.16-0.22
	c0,0,0.01,0.01,0.01,0.01c-0.2-0.38-0.27-0.77-0.25-1.2c0.02-0.61-0.01-1.23,0.01-1.84c0.01-0.31-0.08-0.41-0.4-0.4
	c-0.65,0.02-1.31,0-1.96,0.01c-0.46,0.01-0.91-0.04-1.3-0.32c0,0-0.02,0.01-0.02,0.01c-0.05-0.04-0.09-0.08-0.14-0.11
	c0,0,0.01,0.01,0.01,0.01c-0.04-0.05-0.08-0.09-0.13-0.14c0,0,0.02,0.01,0.02,0.01c-0.05-0.07-0.11-0.15-0.16-0.22
	c0,0,0.01,0.01,0.01,0.01c-0.08-0.14-0.16-0.29-0.23-0.43c0,0,0.01-0.01,0.01-0.01c0-0.69-0.01-1.37-0.01-2.06
	c0,0-0.01,0.02-0.01,0.02c0.11-0.05,0.1-0.16,0.11-0.26c0,0,0,0.01,0,0.01c0.05-0.08,0.09-0.16,0.14-0.24
	c0.15-0.15,0.29-0.3,0.44-0.45c0.69-0.36,1.38-0.72,2.07-1.07c0,0-0.01,0.01-0.01,0.01c0.13-0.02,0.26-0.04,0.35-0.16
	c0,0-0.01,0.01-0.01,0.01c0.08-0.04,0.17-0.09,0.25-0.13c0,0-0.01,0.01-0.01,0.01c0.07-0.01,0.14-0.01,0.15-0.11
	c0,0-0.01,0.02-0.01,0.02c0.13-0.02,0.26-0.04,0.35-0.16c0,0-0.01,0.01-0.01,0.01c0.1-0.02,0.2-0.02,0.26-0.13
	c0,0-0.01,0.01-0.01,0.01c0.1-0.02,0.2-0.03,0.25-0.13c0,0-0.02,0.01-0.01,0.01c0.1-0.02,0.2-0.03,0.25-0.13
	c0,0-0.01,0.01-0.01,0.01c0.04-0.05,0.09-0.09,0.13-0.14c0.03,0.01,0.07,0,0.1-0.01c0.11,0.03,0.2,0.01,0.26-0.1
	c0,0-0.02,0.02-0.02,0.02c0.1-0.02,0.21-0.02,0.26-0.13c0,0-0.01,0.02-0.01,0.02c0.35-0.12,0.69-0.25,0.97-0.49
	c0,0-0.01,0.02-0.01,0.02c0.27-0.07,0.52-0.18,0.73-0.37c0,0-0.01,0.02-0.01,0.02c0.1-0.01,0.2-0.02,0.25-0.14c0,0,0,0.02,0,0.02
	c0.07-0.02,0.14-0.05,0.2-0.07c0.04-0.03,0.09-0.05,0.13-0.08c0.08-0.04,0.17-0.09,0.25-0.13c0,0-0.01,0.01-0.01,0.01
	c0.08-0.04,0.17-0.08,0.25-0.13c0,0-0.01,0.01-0.01,0.01c0.08-0.04,0.17-0.09,0.25-0.13c0,0-0.01,0.01-0.01,0.01
	c0.08-0.04,0.17-0.08,0.25-0.13c0,0-0.01,0.01-0.01,0.01c0.08-0.04,0.17-0.08,0.25-0.13c0,0-0.01,0.01-0.01,0.01
	c0.1-0.01,0.2-0.03,0.25-0.13c0,0-0.01,0.01-0.01,0.01c0.1-0.02,0.2-0.02,0.26-0.13c0,0-0.01,0.01-0.01,0.01
	c0.1-0.02,0.2-0.03,0.25-0.13c0,0-0.01,0.01-0.01,0.01c0.1-0.02,0.2-0.03,0.25-0.13c0,0-0.01,0.01-0.01,0.01
	c0.1-0.02,0.21-0.02,0.26-0.13c0,0-0.02,0.01-0.02,0.01c0.1-0.02,0.2-0.02,0.26-0.13c0,0-0.01,0.01-0.01,0.01
	c1.02-0.43,2.01-0.94,2.98-1.46c0,0-0.01,0-0.01,0c0.16-0.08,0.32-0.16,0.48-0.24c0,0-0.01,0.01-0.01,0.01
	c0.08-0.04,0.17-0.08,0.25-0.13c0,0-0.01,0.01-0.01,0.01c0.08-0.04,0.17-0.08,0.25-0.12c0,0-0.01,0.01-0.01,0.01
	c0.08-0.04,0.17-0.09,0.25-0.13c0,0-0.01,0.01-0.01,0.01c0.08-0.04,0.17-0.08,0.25-0.13c0,0-0.01,0.01-0.01,0.01
	c0.07-0.01,0.14-0.01,0.15-0.11c0,0-0.01,0.02-0.01,0.02c0.13-0.02,0.26-0.04,0.35-0.16c0,0-0.01,0.01-0.01,0.01
	c0.08-0.04,0.17-0.09,0.25-0.13c0,0-0.01,0.01-0.01,0.01c0.08-0.04,0.17-0.09,0.25-0.13c0,0-0.01,0.01-0.01,0.01
	c0.1-0.01,0.2-0.03,0.25-0.13c0,0-0.01,0.01-0.01,0.01c0.1-0.02,0.2-0.02,0.26-0.13c0,0-0.01,0.01-0.01,0.01
	c0.1-0.02,0.2-0.03,0.25-0.13c0,0-0.01,0.01-0.01,0.01c0.1-0.02,0.2-0.02,0.26-0.13c0,0-0.02,0.01-0.02,0.01
	c0.1-0.02,0.2-0.02,0.26-0.13c0,0-0.01,0.01-0.01,0.01c1.26-0.55,2.49-1.17,3.7-1.82c0,0-0.01,0.01-0.01,0.01
	c0.08-0.04,0.17-0.08,0.25-0.12c0,0-0.01,0.01-0.01,0.01c0.08-0.04,0.17-0.09,0.25-0.13c0,0-0.01,0.01-0.01,0.01
	c0.08-0.04,0.17-0.08,0.25-0.13c0,0-0.01,0.01-0.01,0.01c0.08-0.04,0.17-0.08,0.25-0.13c0,0-0.01,0.01-0.01,0.01
	c0.08-0.04,0.17-0.08,0.25-0.13c0,0-0.01,0.01-0.01,0.01c0.08-0.04,0.17-0.09,0.25-0.13c0,0-0.01,0.01-0.01,0.01
	c0.04,0,0.07-0.01,0.11-0.03c0.93-0.33,1.71-0.96,2.63-1.31c0.43-0.14,0.82-0.36,1.2-0.58c0,0-0.01,0.01-0.01,0.01
	c0.08-0.04,0.17-0.08,0.25-0.13c0,0-0.01,0.01-0.01,0.01c0.08-0.04,0.17-0.08,0.25-0.12c0,0-0.01,0.01-0.01,0.01
	c0.16-0.08,0.32-0.16,0.49-0.24c0,0-0.01,0.01-0.01,0.01c0.08-0.04,0.17-0.08,0.25-0.13c0,0-0.01,0.01-0.01,0.01
	c0.08-0.04,0.17-0.09,0.25-0.13c0,0-0.01,0.01-0.01,0.01c0.08-0.04,0.17-0.09,0.25-0.13c0,0-0.01,0.01-0.01,0.01
	c0.07-0.01,0.14-0.01,0.15-0.11c0,0,0,0.02,0,0.02c0.13-0.02,0.26-0.04,0.35-0.16c0,0-0.01,0.01-0.01,0.01
	c0.1-0.02,0.2-0.02,0.26-0.13c0,0-0.01,0.01-0.01,0.01c0.1-0.02,0.2-0.03,0.25-0.13c0,0-0.01,0.01-0.01,0.01
	c0.1-0.02,0.2-0.02,0.26-0.13c0,0-0.01,0.01-0.01,0.01c0.5-0.2,1.01-0.4,1.44-0.74c0,0-0.01,0.01-0.01,0.01
	c0.4-0.08,0.74-0.29,1.08-0.49c0,0-0.01,0-0.01,0c0.16-0.08,0.32-0.16,0.49-0.24c0,0-0.01,0.01-0.01,0.01
	c0.08-0.04,0.17-0.08,0.25-0.12c0,0-0.01,0.01-0.01,0.01c0.08-0.04,0.17-0.08,0.25-0.12c0,0-0.01,0.01-0.01,0.01
	c0.08-0.04,0.17-0.09,0.25-0.13c0,0-0.01,0.01-0.01,0.01c0.08-0.04,0.17-0.08,0.25-0.13c0,0-0.01,0.01-0.01,0.01
	c0.1-0.01,0.2-0.03,0.25-0.13c0,0-0.01,0.01-0.01,0.01c0.1-0.02,0.2-0.02,0.25-0.13c0,0-0.01,0.01-0.01,0.01
	c0.1-0.02,0.2-0.03,0.25-0.13c0,0-0.02,0.01-0.01,0.01c0.1-0.02,0.2-0.02,0.26-0.13c0,0-0.01,0.01-0.01,0.01
	c0.7-0.28,1.38-0.61,2.03-0.98c0,0-0.01,0.01-0.01,0.01c0.08-0.04,0.17-0.08,0.25-0.13c0,0-0.01,0.01-0.01,0.01
	c0.1-0.01,0.2-0.03,0.25-0.13c0,0-0.01,0.01-0.01,0.01c0.08-0.04,0.17-0.09,0.25-0.13c0,0-0.01,0.01-0.01,0.01
	c0.1-0.02,0.2-0.02,0.26-0.13c0,0-0.02,0.01-0.01,0.01c0.1-0.02,0.2-0.02,0.26-0.13c0,0-0.01,0.01-0.01,0.01
	c0.36-0.12,0.7-0.27,1-0.5c0.78-0.23,1.5-0.61,2.2-1c1.09-0.6,2.14-0.74,3.24-0.1c0.03,0.02,0.07,0.03,0.11,0.03
	c0,0-0.01-0.01-0.01-0.01c0.09,0.12,0.22,0.14,0.35,0.16c0,0-0.01-0.02-0.01-0.02c0.01,0.09,0.08,0.09,0.15,0.1
	c0,0-0.01-0.01-0.01-0.01c0.08,0.04,0.17,0.08,0.25,0.13c0,0-0.01-0.01-0.01-0.01c0.08,0.04,0.17,0.08,0.25,0.12c0,0-0.01,0-0.01,0
	c0.08,0.04,0.16,0.08,0.25,0.12c0,0-0.01,0-0.01,0c0.66,0.37,1.32,0.72,2.03,0.98c0,0-0.01-0.01-0.01-0.01
	c0.05,0.11,0.16,0.11,0.26,0.13c0,0-0.01-0.01-0.01-0.01c0.05,0.1,0.16,0.11,0.25,0.13c0,0-0.01-0.01-0.01-0.01
	c0.08,0.04,0.17,0.09,0.25,0.13c0,0-0.01-0.01-0.01-0.01c0.08,0.04,0.17,0.09,0.25,0.13c0,0-0.01-0.01-0.01-0.01
	c0.09,0.12,0.22,0.14,0.35,0.16c0,0-0.01-0.01-0.01-0.01c0.05,0.1,0.15,0.11,0.24,0.13c0,0,0-0.01,0-0.01
	c0.05,0.1,0.15,0.11,0.25,0.13c0,0-0.01-0.02-0.01-0.02c0.05,0.03,0.1,0.07,0.15,0.1c0,0-0.01-0.01-0.01-0.01
	c0.08,0.04,0.16,0.08,0.25,0.12c0,0-0.01,0-0.01,0c0.1,0.1,0.22,0.14,0.35,0.16c0,0-0.01-0.01-0.01-0.01
	c0.45,0.3,0.94,0.53,1.45,0.72c0,0-0.01-0.01-0.01-0.01c0.07,0.12,0.19,0.12,0.31,0.14c0.06,0.13,0.19,0.16,0.31,0.19
	c0.03,0.02,0.07,0.03,0.11,0.03c0,0-0.01-0.01-0.01-0.01c0.06,0.1,0.15,0.11,0.25,0.13c0,0-0.01-0.01-0.01-0.01
	c0.08,0.04,0.17,0.09,0.25,0.13c0,0-0.01-0.01-0.01-0.01c0.16,0.08,0.33,0.16,0.49,0.24c0,0-0.01-0.01-0.01-0.01
	c0.08,0.04,0.17,0.08,0.25,0.12c0,0-0.01-0.01-0.01-0.01c0.65,0.39,1.31,0.74,2.03,0.98c0,0-0.01-0.01-0.01-0.01
	c0.05,0.11,0.16,0.11,0.26,0.13c0,0-0.02-0.01-0.02-0.01c0.05,0.11,0.16,0.11,0.25,0.13c0,0-0.01-0.01-0.01-0.01
	c0.05,0.1,0.15,0.12,0.25,0.13c0,0-0.01-0.01-0.01-0.01c0.05,0.1,0.16,0.11,0.25,0.13c0,0-0.01-0.01-0.01-0.01
	c0.08,0.04,0.17,0.08,0.25,0.13c0,0-0.01-0.01-0.01-0.01c0.08,0.04,0.17,0.09,0.25,0.13c0,0-0.01-0.01-0.01-0.01
	c0.08,0.04,0.17,0.08,0.25,0.13c0,0-0.01-0.01-0.01-0.01c0.08,0.04,0.17,0.08,0.25,0.13c0,0-0.01-0.01-0.01-0.01
	c0.68,0.37,1.36,0.74,2.09,0.99c0.14,0.19,0.35,0.24,0.55,0.31c0.03,0.02,0.07,0.03,0.1,0.03c0,0-0.01-0.01-0.01-0.01
	c0.05,0.1,0.16,0.11,0.25,0.13c0,0-0.01-0.01-0.01-0.01c0.08,0.04,0.17,0.09,0.25,0.13c0,0-0.01-0.01-0.01-0.01
	c0.06,0.1,0.16,0.11,0.25,0.13c0,0-0.01-0.01-0.01-0.01c0.06,0.09,0.15,0.12,0.25,0.13c0,0-0.01-0.01-0.01-0.01
	c0.16,0.08,0.32,0.16,0.49,0.25c0,0-0.01-0.01-0.01-0.01c0.08,0.04,0.17,0.08,0.25,0.12c0,0-0.01-0.01-0.01-0.01
	c0.25,0.18,0.53,0.31,0.82,0.4c0,0,0-0.02,0-0.02c0.21,0.19,0.46,0.29,0.73,0.37c0,0-0.01-0.02-0.01-0.02
	c0.05,0.11,0.15,0.12,0.25,0.14c0,0-0.01-0.02-0.01-0.02c0.05,0.11,0.16,0.11,0.26,0.13c0,0-0.02-0.02-0.02-0.02
	c0.05,0.11,0.16,0.11,0.25,0.15c0.12,0.06,0.25,0.13,0.37,0.19c0.03,0.02,0.07,0.03,0.11,0.03c0,0-0.01-0.01-0.01-0.01
	c0.08,0.04,0.17,0.09,0.25,0.13c0,0-0.01-0.01-0.01-0.01c0.06,0.1,0.15,0.12,0.25,0.13c0,0-0.01-0.01-0.01-0.01
	c0.08,0.04,0.17,0.09,0.25,0.13c0,0-0.01-0.01-0.01-0.01c0.09,0.12,0.22,0.14,0.35,0.16c0,0-0.01-0.01-0.01-0.01
	c0.1,0.13,0.23,0.18,0.38,0.21c0,0-0.01,0-0.01,0c0.74,0.41,1.49,0.79,2.27,1.1c0,0-0.01-0.01-0.01-0.01
	c0.05,0.11,0.15,0.12,0.25,0.13c0,0-0.01-0.01-0.01-0.01c0.06,0.1,0.16,0.11,0.25,0.13c0,0-0.01-0.01-0.01-0.01
	c0.06,0.1,0.15,0.12,0.25,0.13c0,0-0.01-0.01-0.01-0.01c0.06,0.1,0.15,0.12,0.25,0.13c0,0-0.01-0.01-0.01-0.01
	c0.08,0.04,0.17,0.09,0.25,0.13c0,0-0.01-0.01-0.01-0.01c0.08,0.04,0.17,0.08,0.25,0.13c0,0-0.01-0.01-0.01-0.01
	c0.08,0.04,0.17,0.08,0.25,0.13c0,0-0.01-0.01-0.01-0.01c0.08,0.04,0.17,0.08,0.25,0.13c0,0-0.01-0.01-0.01-0.01
	c0.66,0.37,1.33,0.7,2.03,0.98c0,0-0.01-0.01-0.01-0.01c0.05,0.11,0.16,0.11,0.26,0.13c0,0-0.02-0.01-0.02-0.01
	c0.05,0.11,0.15,0.12,0.25,0.13c0,0-0.01-0.01-0.01-0.01c0.05,0.11,0.16,0.11,0.26,0.13c0,0-0.01-0.01-0.01-0.01
	c0.05,0.1,0.15,0.11,0.25,0.13c0,0-0.01-0.01-0.01-0.01c0.06,0.1,0.15,0.11,0.25,0.13c0,0-0.01-0.01-0.01-0.01
	c0.08,0.04,0.17,0.08,0.25,0.13c0,0-0.01-0.01-0.01-0.01c0.08,0.04,0.17,0.08,0.25,0.13c0,0-0.01-0.01-0.01-0.01
	c0.54,0.32,1.1,0.59,1.68,0.82c0.27,0.13,0.54,0.25,0.81,0.38c0.04,0.14,0.16,0.12,0.26,0.14c0,0-0.02-0.01-0.02-0.01
	c0.05,0.1,0.16,0.11,0.25,0.13c0,0-0.01-0.01-0.01-0.01c0.05,0.11,0.16,0.11,0.25,0.13c0,0-0.01-0.01-0.01-0.01
	c0.09,0.12,0.21,0.14,0.35,0.16c0,0-0.01-0.02-0.01-0.02c0.01,0.1,0.08,0.09,0.15,0.11c0,0-0.01-0.01-0.01-0.01
	c0.08,0.04,0.17,0.08,0.25,0.13c0,0-0.01-0.01-0.01-0.01c0.38,0.24,0.78,0.44,1.21,0.58l0.02,0.03c0,0,0.04-0.01,0.04-0.01
	c0.23,0.19,0.49,0.3,0.77,0.38c0,0-0.01-0.02-0.01-0.02c0.05,0.11,0.16,0.12,0.26,0.13c0,0-0.02-0.02-0.02-0.02
	c0.05,0.11,0.16,0.11,0.26,0.13c0,0-0.01-0.02-0.01-0.02c0.07,0.13,0.19,0.15,0.32,0.12c0.63,0.52,1.41,0.75,2.12,1.11
	c0.56,0.29,1.06,0.62,1.41,1.15c0.01,0.09,0,0.2,0.11,0.25c0,0-0.01-0.01-0.01-0.01c0,0.74,0,1.48,0.01,2.22
	c-0.34,0.42-0.64,0.88-1.2,1.06c-0.11,0.03-0.23,0.05-0.34,0.08c-0.08,0-0.16,0-0.24,0c-0.63,0-1.26,0.02-1.89-0.02
	c-0.44-0.03-0.5,0.14-0.5,0.53c-0.01,0.86,0.14,1.73-0.12,2.58c0,0,0-0.01,0-0.01C92.62,41.89,92.58,41.97,92.53,42.05z
	 M47.41,75.49c0.12,0,0.24,0,0.36,0c1.23,0,2.47,0,3.7,0c0.59,0.09,0.34-0.37,0.34-0.58c0.01-11.49,0.01-22.99,0.01-34.48
	c0-0.16,0.01-0.32-0.01-0.48c-0.02-0.12-0.12-0.13-0.23-0.1c-2.94,0-5.88,0.01-8.82,0.01c-0.56-0.12-0.34,0.32-0.34,0.52
	c-0.01,11.5,0,23.01-0.03,34.51c0,0.61,0.21,0.72,0.72,0.6c0.72,0,1.43,0,2.15,0c0.24,0,0.48,0,0.72,0c0.2,0,0.4,0,0.59,0
	c0.12,0,0.24,0,0.36,0C47.09,75.49,47.25,75.49,47.41,75.49z M63.3,75.48c0.4,0,0.79,0,1.19,0c0.67,0,1.34,0,2.01,0
	c0.48,0,0.97,0,1.45,0c0.12,0,0.24,0,0.37,0c0.25-0.15,0.11-0.39,0.11-0.58c0.01-8.46,0.01-16.92,0.01-25.37
	c0-3.2-0.01-6.41-0.02-9.61c-0.12-0.21-0.32-0.1-0.47-0.1c-1.42-0.01-2.85-0.01-4.27-0.01c-1.52,0.01-3.04,0.03-4.56,0.04
	c-0.33,0.14-0.15,0.42-0.15,0.63c-0.01,9.83-0.01,19.66-0.01,29.49c0,1.69,0,3.38,0.01,5.07c0,0.17-0.17,0.49,0.25,0.44
	c0.21,0,0.41,0.01,0.62,0.01c0.99,0,1.99,0,2.98,0C62.98,75.48,63.14,75.48,63.3,75.48z M84.67,40.03c0.02-0.04,0.01-0.07-0.01-0.11
	c-0.02-0.03-0.04-0.09-0.06-0.09c-2.99-0.01-5.99-0.01-8.98-0.02c-0.16,0-0.28,0.01-0.25,0.22c0,7.23-0.01,14.45-0.01,21.68
	c0,4.42,0,8.84,0,13.26c0,0.25-0.13,0.55,0.36,0.55c2.95-0.03,5.89-0.02,8.84-0.03c0.25-0.15,0.11-0.39,0.11-0.58
	c0.01-3.08,0.01-6.17,0.01-9.25c0-8.5-0.01-16.99-0.01-25.49C84.67,40.11,84.67,40.07,84.67,40.03z M35.43,39.91
	c-0.05-0.03-0.09-0.08-0.14-0.08c-2.95,0-5.9,0-8.85,0c-0.14,0-0.29-0.01-0.26,0.2c-0.01,0.08-0.02,0.16-0.02,0.24
	c0,11.58,0,23.16-0.01,34.74c0,0.45,0.16,0.5,0.55,0.5c2.71-0.02,5.41-0.03,8.12,0c0.56,0.01,0.67-0.15,0.67-0.68
	c-0.02-11.46-0.01-22.92-0.01-34.39C35.46,40.27,35.44,40.09,35.43,39.91z"/>
</svg>
